<svg xmlns="http://www.w3.org/2000/svg" version="1.1" xmlns:xlink="http://www.w3.org/1999/xlink" xmlns:svgjs="http://svgjs.dev/svgjs" width="1000" height="1125" viewBox="0 0 1000 1125"><g transform="matrix(1,0,0,1,0,0)"><svg viewBox="0 0 320 360" data-background-color="#111111" preserveAspectRatio="xMidYMid meet" height="1125" width="1000" xmlns="http://www.w3.org/2000/svg" xmlns:xlink="http://www.w3.org/1999/xlink"><g id="tight-bounds" transform="matrix(1,0,0,1,0,0)"><svg viewBox="0 0 320 360" height="360" width="320"><g><svg></svg></g><g><svg viewBox="0 0 320 360" height="360" width="320"><g><path d="M320 187.111c0-45.764-20.238-86.866-52.203-114.908-28.043-31.964-69.145-52.203-114.908-52.203-84.302 0-152.889 68.587-152.889 152.889 0 45.753 20.231 86.848 52.185 114.891 28.043 31.975 69.152 52.22 114.926 52.22 0.299 0 0.59-0.021 0.889-0.021 0.299 0 0.59 0.021 0.889 0.021 83.456 0 151.111-67.655 151.111-151.111 0-0.299-0.021-0.59-0.021-0.889 0-0.299 0.021-0.59 0.021-0.889zM59.833 263.097c-15.093-21.255-24.071-47.143-24.256-75.097 0.48-72.928 59.492-131.943 132.423-132.423 27.954 0.185 53.845 9.163 75.097 24.256 24.366 23.627 39.57 56.64 39.57 93.056 0 71.559-58.219 129.778-129.778 129.778-36.416 0-69.429-15.204-93.056-39.57zM3.556 172.889c0-82.343 66.99-149.333 149.333-149.333 35.051 0 67.292 12.167 92.8 32.462-22.98-13.824-49.863-21.796-78.578-21.796-84.302 0-152.889 68.587-152.889 152.889 0 28.708 7.968 55.584 21.785 78.56-20.288-25.5-32.452-57.739-32.451-92.782zM167.111 318.667c-35.84 0-68.363-14.418-92.107-37.743 21.952 15.89 48.864 25.298 77.885 25.298 73.522 0 133.333-59.812 133.333-133.333 0-29.02-9.408-55.932-25.298-77.885 23.324 23.744 37.742 56.267 37.743 92.107 0 72.54-59.015 131.556-131.556 131.556z" fill="#3d9970" fill-rule="nonzero" stroke="none" stroke-width="1" stroke-linecap="butt" stroke-linejoin="miter" stroke-miterlimit="10" stroke-dasharray="" stroke-dashoffset="0" font-family="none" font-weight="none" font-size="none" text-anchor="none" style="mix-blend-mode: normal" data-fill-palette-color="tertiary"></path></g><g transform="matrix(1,0,0,1,64,141.15539305301644)"><svg viewBox="0 0 192 77.68921389396709" height="77.68921389396709" width="192"><g><svg viewBox="0 0 192 77.68921389396709" height="77.68921389396709" width="192"><g><svg viewBox="0 0 192 77.68921389396709" height="77.68921389396709" width="192"><g><svg viewBox="0 0 192 77.68921389396709" height="77.68921389396709" width="192"><g id="textblocktransform"><svg viewBox="0 0 192 77.68921389396709" height="77.68921389396709" width="192" id="textblock"><g><svg viewBox="0 0 192 77.68921389396709" height="77.68921389396709" width="192"><g transform="matrix(1,0,0,1,0,0)"><svg width="192" viewBox="1 -32.5 82.05 33.2" height="77.68921389396709" data-palette-color="#ffffff"><path d="M17.85 0.7Q14.15-11.85 11.05-20.75L11.05-20.75 10.5-20.75Q10.4-17.75 10.05-11.3L10.05-11.3 9.75-5.3Q9.75-3.65 11.4-3.65L11.4-3.65Q12.4-3.65 12.9-3.75L12.9-3.75 13.25-3.4 12.7 0.2 10.85 0.15Q8.4 0 6.3 0L6.3 0Q5.25 0 3.43 0.15 1.6 0.3 1 0.4L1 0.4 1.35-3.35Q2.7-3.55 3.33-4.28 3.95-5 4.3-6.85L4.3-6.85Q4.7-10.3 5.45-17.9 6.2-25.5 6.2-26.2L6.2-26.2Q6.2-27.15 5.95-27.6 5.7-28.05 4.98-28.28 4.25-28.5 2.7-28.65L2.7-28.65 2.35-29 2.85-32.45 5.25-32.35Q7.95-32.2 9.55-32.2L9.55-32.2Q11.7-32.2 14.05-32.35L14.05-32.35 15.85-32.4Q17.4-26.45 19.5-19.3L19.5-19.3 21.1-13.55 21.6-13.55Q22.25-15.75 22.4-16.1L22.4-16.1Q22.95-17.95 24.5-22.98 26.05-28 27.3-32.25L27.3-32.25Q28.85-32.25 29.7-32.2L29.7-32.2 32.55-32.15Q33.95-32.15 34.6-32.2L34.6-32.2Q35.8-32.25 39.5-32.5L39.5-32.5 39.8-32.3 39.45-28.75Q37.35-28.6 36.63-28.05 35.9-27.5 35.9-26.1L35.9-26.1Q35.9-24.25 36.27-18.28 36.65-12.3 37.05-8.2L37.05-8.2Q37.3-5.55 37.8-4.63 38.3-3.7 39.45-3.7L39.45-3.7Q40.4-3.7 40.9-3.8L40.9-3.8 41.15-3.45 40.7 0.15Q37.85 0 35.45 0L35.45 0Q34 0 31.2 0.15 28.4 0.3 27.3 0.4L27.3 0.4 27.8-3.4Q29.2-3.55 29.83-4.13 30.45-4.7 30.45-5.85L30.45-5.85 30.25-10.55Q29.9-15.85 29.75-20.75L29.75-20.75 29.25-20.75Q25.75-10.9 22.4 0.25L22.4 0.25 17.85 0.7ZM59.75 0.7Q56.05-11.85 52.95-20.75L52.95-20.75 52.4-20.75Q52.3-17.75 51.95-11.3L51.95-11.3 51.65-5.3Q51.65-3.65 53.3-3.65L53.3-3.65Q54.3-3.65 54.8-3.75L54.8-3.75 55.15-3.4 54.6 0.2 52.75 0.15Q50.3 0 48.2 0L48.2 0Q47.15 0 45.32 0.15 43.5 0.3 42.9 0.4L42.9 0.4 43.25-3.35Q44.6-3.55 45.22-4.28 45.85-5 46.2-6.85L46.2-6.85Q46.6-10.3 47.35-17.9 48.1-25.5 48.1-26.2L48.1-26.2Q48.1-27.15 47.85-27.6 47.6-28.05 46.87-28.28 46.15-28.5 44.6-28.65L44.6-28.65 44.25-29 44.75-32.45 47.15-32.35Q49.85-32.2 51.45-32.2L51.45-32.2Q53.6-32.2 55.95-32.35L55.95-32.35 57.75-32.4Q59.3-26.45 61.4-19.3L61.4-19.3 63-13.55 63.5-13.55Q64.15-15.75 64.3-16.1L64.3-16.1Q64.85-17.95 66.4-22.98 67.95-28 69.2-32.25L69.2-32.25Q70.75-32.25 71.6-32.2L71.6-32.2 74.45-32.15Q75.85-32.15 76.5-32.2L76.5-32.2Q77.7-32.25 81.4-32.5L81.4-32.5 81.7-32.3 81.35-28.75Q79.25-28.6 78.52-28.05 77.8-27.5 77.8-26.1L77.8-26.1Q77.8-24.25 78.17-18.28 78.55-12.3 78.95-8.2L78.95-8.2Q79.2-5.55 79.7-4.63 80.2-3.7 81.35-3.7L81.35-3.7Q82.3-3.7 82.8-3.8L82.8-3.8 83.05-3.45 82.6 0.15Q79.75 0 77.35 0L77.35 0Q75.9 0 73.1 0.15 70.3 0.3 69.2 0.4L69.2 0.4 69.7-3.4Q71.1-3.55 71.72-4.13 72.35-4.7 72.35-5.85L72.35-5.85 72.15-10.55Q71.8-15.85 71.65-20.75L71.65-20.75 71.15-20.75Q67.65-10.9 64.3 0.25L64.3 0.25 59.75 0.7Z" opacity="1" transform="matrix(1,0,0,1,0,0)" fill="#ffffff" class="wordmark-text-0" data-fill-palette-color="primary" id="text-0"></path></svg></g></svg></g></svg></g></svg></g><g></g></svg></g></svg></g></svg></g></svg></g><defs></defs></svg><rect width="320" height="360" fill="none" stroke="none" visibility="hidden"></rect></g></svg></g></svg>